# Blender 4.3.2
# www.blender.org
mtllib floor.mtl
o floor
v 0.000000 -0.018258 -1.251422
v 0.056169 0.024153 -1.267344
v 0.318811 -0.018258 -1.227376
v 0.364467 0.021237 -1.237710
v 0.625368 -0.018258 -1.156163
v 0.643522 0.019156 -1.158754
v 0.907893 -0.018258 -1.040518
v 0.911918 0.018413 -1.040672
v 1.155530 -0.018257 -0.884889
v 1.155530 0.018257 -0.884889
v 1.358759 -0.018257 -0.695252
v 1.358759 0.018257 -0.695252
v 1.509772 -0.018257 -0.478899
v 1.509772 0.018257 -0.478899
v 1.602766 -0.018257 -0.244140
v 1.602766 0.018257 -0.244140
v 1.634166 -0.018257 0.000000
v 1.634166 0.018257 -0.000000
v 1.602766 -0.018257 0.244140
v 1.602766 0.018257 0.244140
v 1.509772 -0.018257 0.478899
v 1.509772 0.018257 0.478899
v 1.358759 -0.018257 0.695252
v 1.358759 0.018257 0.695252
v 1.155530 -0.018257 0.884889
v 1.155530 0.018257 0.884889
v 0.907893 -0.018257 1.040518
v 0.907893 0.018258 1.040518
v 0.625368 -0.018257 1.156163
v 0.625368 0.018258 1.156163
v 0.318811 -0.018257 1.227376
v 0.318811 0.018258 1.227376
v 0.000000 -0.018257 1.251422
v 0.000000 0.018258 1.251422
v -0.318811 -0.018257 1.227376
v -0.318811 0.018258 1.227376
v -0.625368 -0.018257 1.156163
v -0.625368 0.018258 1.156163
v -0.907893 -0.018257 1.040518
v -0.907893 0.018258 1.040518
v -1.155530 -0.018257 0.884889
v -1.153458 0.018535 0.889405
v -1.358759 -0.018257 0.695252
v -1.355379 0.019298 0.707107
v -1.509772 -0.018257 0.478899
v -1.509527 0.020750 0.499516
v -1.602766 -0.018257 0.244140
v -1.608316 0.022199 0.262062
v -1.634166 -0.018257 0.000000
v -1.645626 0.023291 0.013938
v -1.602766 -0.018257 -0.244140
v -1.623688 0.024332 -0.217859
v -1.509772 -0.018257 -0.478899
v -1.537069 0.025288 -0.446038
v -1.358759 -0.018257 -0.695252
v -1.392728 0.026050 -0.666348
v -1.155530 -0.018257 -0.884889
v -1.207429 0.026574 -0.857986
v -0.907893 -0.018258 -1.040518
v -0.965281 0.026767 -1.018829
v -0.625368 -0.018258 -1.156163
v -0.650989 0.026937 -1.149929
v -0.318811 -0.018258 -1.227376
v -0.294356 0.026229 -1.237009
vn -0.0370 -0.3068 -0.9510
vn 0.1521 -0.3669 -0.9177
vn -0.0053 -0.3389 -0.9408
vn 0.1073 -0.4424 -0.8904
vn 0.3182 -0.2017 -0.9263
vn 0.2919 -0.2699 -0.9176
vn 0.4653 -0.0607 -0.8831
vn 0.4598 -0.0636 -0.8857
vn 0.6109 -0.0030 -0.7917
vn 0.6101 -0.0008 -0.7923
vn 0.7535 -0.0000 -0.6575
vn 0.8796 -0.0000 -0.4758
vn 0.9679 -0.0000 -0.2514
vn 0.9679 -0.0000 -0.2513
vn 1.0000 -0.0000 -0.0000
vn 0.9679 -0.0000 0.2513
vn 0.9679 -0.0000 0.2514
vn 0.8796 -0.0000 0.4758
vn 0.7535 -0.0000 0.6575
vn 0.6080 -0.0000 0.7939
vn 0.4555 -0.0000 0.8902
vn 0.3025 -0.0000 0.9531
vn 0.3026 -0.0000 0.9531
vn 0.1505 -0.0000 0.9886
vn 0.1506 -0.0000 0.9886
vn -0.0000 -0.0000 1.0000
vn -0.1506 -0.0000 0.9886
vn -0.1505 -0.0000 0.9886
vn -0.3026 -0.0000 0.9531
vn -0.3025 -0.0000 0.9531
vn -0.4517 -0.0024 0.8922
vn -0.6070 -0.0659 0.7920
vn -0.6007 -0.0642 0.7969
vn -0.7485 -0.1545 0.6449
vn -0.7375 -0.1374 0.6612
vn -0.8624 -0.2487 0.4410
vn -0.8521 -0.2304 0.4700
vn -0.9428 -0.2449 0.2262
vn -0.9381 -0.2369 0.2527
vn -0.9598 -0.2806 -0.0097
vn -0.9626 -0.2705 0.0132
vn -0.9148 -0.3117 -0.2569
vn -0.9262 -0.2959 -0.2337
vn -0.8559 -0.2153 -0.4701
vn -0.8707 -0.1889 -0.4541
vn -0.7396 -0.2150 -0.6378
vn -0.7641 -0.1447 -0.6287
vn -0.5831 -0.2726 -0.7653
vn -0.6106 -0.1957 -0.7673
vn -0.4468 -0.1703 -0.8783
vn -0.4568 -0.1316 -0.8798
vn -0.3096 -0.0531 -0.9494
vn -0.3080 -0.0365 -0.9507
vn 0.0012 1.0000 0.0023
vn 0.0002 1.0000 0.0002
vn 0.0025 1.0000 0.0016
vn -0.1679 -0.0963 -0.9811
vn -0.1489 -0.1458 -0.9780
vn -0.0000 -1.0000 -0.0000
vn -0.4534 0.0003 0.8913
vn 0.0105 0.9999 -0.0107
vn 0.0063 0.9999 0.0126
vn 0.0081 0.9997 0.0250
vn 0.0057 0.9999 0.0099
vn -0.0001 1.0000 0.0010
vn 0.0017 1.0000 0.0044
vn 0.0023 1.0000 0.0050
vn 0.0027 1.0000 0.0043
vn 0.0011 1.0000 0.0046
vn 0.0019 1.0000 0.0047
vn 0.0064 1.0000 0.0034
vn -0.0004 1.0000 0.0052
vn -0.0077 0.9999 0.0127
vn -0.0044 0.9999 0.0096
vn -0.0022 1.0000 0.0055
vn -0.0000 1.0000 -0.0000
vn 0.0010 1.0000 -0.0002
vn 0.0033 1.0000 -0.0030
vn 0.0075 0.9999 -0.0107
vt -0.241114 0.508085
vt -0.297449 0.503389
vt -0.229431 0.502739
vt -0.305996 0.508226
vt -0.362148 0.503715
vt 1.320387 0.508112
vt 1.264013 0.503739
vt 1.323354 0.503715
vt 1.263397 0.507849
vt 1.210485 0.503522
vt 1.210389 0.507412
vt 1.162104 0.503128
vt 1.161972 0.506838
vt 1.117681 0.502602
vt 1.117521 0.506177
vt 1.075881 0.501968
vt 1.075700 0.505461
vt 1.035381 0.501236
vt 1.035180 0.504702
vt 0.994885 0.500403
vt 0.994667 0.503897
vt 0.953096 0.499459
vt 0.952861 0.503037
vt 0.908682 0.498393
vt 0.908432 0.502107
vt 0.860293 0.497202
vt 0.860031 0.501098
vt 0.806714 0.495903
vt 0.806450 0.500012
vt 0.747246 0.494564
vt 0.746995 0.498883
vt 0.682316 0.493314
vt 0.682100 0.497792
vt 0.613970 0.492323
vt 0.613811 0.496864
vt 0.545571 0.491731
vt 0.545485 0.496214
vt 0.480504 0.491572
vt 0.480491 0.495896
vt 0.420861 0.491771
vt 0.368098 0.496140
vt 0.367106 0.492216
vt 0.320823 0.496606
vt 0.318560 0.492807
vt 0.277520 0.497253
vt 0.274017 0.493482
vt 0.235107 0.498026
vt 0.232123 0.494207
vt 0.194047 0.498863
vt 0.191544 0.494972
vt 0.156004 0.499735
vt 0.150977 0.495778
vt 0.116036 0.500734
vt 0.109123 0.496636
vt 0.072115 0.501874
vt 0.064654 0.497559
vt 0.026135 0.503074
vt 0.016235 0.498558
vt -0.026015 0.504402
vt -0.037325 0.499630
vt -0.091209 0.505956
vt -0.096690 0.500743
vt 0.389586 0.237111
vt 0.833247 0.378523
vt 0.649477 0.719920
vt -0.166642 0.507335
vt -0.161407 0.501819
vt 0.796822 0.014612
vt 0.514612 0.203178
vt 0.703178 0.485388
vt -0.365115 0.508112
vt 0.420909 0.495887
vt 0.585777 0.734788
vt 0.519531 0.739810
vt 0.453285 0.734788
vt 0.389586 0.719920
vt 0.330879 0.695774
vt 0.279423 0.663279
vt 0.237194 0.623683
vt 0.205815 0.578508
vt 0.186492 0.529492
vt 0.179967 0.478516
vt 0.186492 0.427539
vt 0.205815 0.378523
vt 0.237194 0.333348
vt 0.279423 0.293752
vt 0.330879 0.261257
vt 0.453285 0.222243
vt 0.519531 0.217222
vt 0.585777 0.222243
vt 0.649477 0.237111
vt 0.708183 0.261257
vt 0.759640 0.293752
vt 0.801869 0.333348
vt 0.852570 0.427539
vt 0.859095 0.478516
vt 0.852570 0.529492
vt 0.833247 0.578508
vt 0.801869 0.623683
vt 0.759640 0.663279
vt 0.708183 0.695774
vt 0.750000 0.490000
vt 0.796822 0.485388
vt 0.841844 0.471731
vt 0.883337 0.449553
vt 0.919706 0.419706
vt 0.949553 0.383337
vt 0.971731 0.341844
vt 0.985388 0.296822
vt 0.990000 0.250000
vt 0.985388 0.203178
vt 0.971731 0.158156
vt 0.949553 0.116663
vt 0.919706 0.080294
vt 0.883337 0.050447
vt 0.841844 0.028269
vt 0.750000 0.010000
vt 0.703178 0.014612
vt 0.658156 0.028269
vt 0.616663 0.050447
vt 0.580294 0.080294
vt 0.550447 0.116663
vt 0.528269 0.158156
vt 0.510000 0.250000
vt 0.514612 0.296822
vt 0.528269 0.341844
vt 0.550447 0.383337
vt 0.580294 0.419706
vt 0.616663 0.449553
vt 0.658156 0.471731
s 1
usemtl bricl
f 2/1/1 3/2/2 1/3/3
f 4/4/4 5/5/5 3/2/2
f 6/6/6 7/7/7 5/8/5
f 8/9/8 9/10/9 7/7/7
f 10/11/10 11/12/11 9/10/9
f 12/13/11 13/14/12 11/12/11
f 14/15/12 15/16/13 13/14/12
f 16/17/14 17/18/15 15/16/13
f 18/19/15 19/20/16 17/18/15
f 20/21/17 21/22/18 19/20/16
f 22/23/18 23/24/19 21/22/18
f 24/25/19 25/26/20 23/24/19
f 26/27/20 27/28/21 25/26/20
f 28/29/21 29/30/22 27/28/21
f 30/31/23 31/32/24 29/30/22
f 32/33/25 33/34/26 31/32/24
f 34/35/26 35/36/27 33/34/26
f 36/37/28 37/38/29 35/36/27
f 38/39/30 39/40/31 37/38/29
f 39/40/31 42/41/32 41/42/33
f 41/42/33 44/43/34 43/44/35
f 43/44/35 46/45/36 45/46/37
f 45/46/37 48/47/38 47/48/39
f 47/48/39 50/49/40 49/50/41
f 49/50/41 52/51/42 51/52/43
f 51/52/43 54/53/44 53/54/45
f 53/54/45 56/55/46 55/56/47
f 55/56/47 58/57/48 57/58/49
f 57/58/49 60/59/50 59/60/51
f 59/60/51 62/61/52 61/62/53
f 38/63/54 22/64/55 6/65/56
f 61/62/53 64/66/57 63/67/58
f 64/66/57 1/3/3 63/67/58
f 31/68/59 47/69/59 63/70/59
f 2/1/1 4/4/4 3/2/2
f 4/4/4 6/71/6 5/5/5
f 6/6/6 8/9/8 7/7/7
f 8/9/8 10/11/10 9/10/9
f 10/11/10 12/13/11 11/12/11
f 12/13/11 14/15/12 13/14/12
f 14/15/12 16/17/14 15/16/13
f 16/17/14 18/19/15 17/18/15
f 18/19/15 20/21/17 19/20/16
f 20/21/17 22/23/18 21/22/18
f 22/23/18 24/25/19 23/24/19
f 24/25/19 26/27/20 25/26/20
f 26/27/20 28/29/21 27/28/21
f 28/29/21 30/31/23 29/30/22
f 30/31/23 32/33/25 31/32/24
f 32/33/25 34/35/26 33/34/26
f 34/35/26 36/37/28 35/36/27
f 36/37/28 38/39/30 37/38/29
f 38/39/30 40/72/60 39/40/31
f 39/40/31 40/72/60 42/41/32
f 41/42/33 42/41/32 44/43/34
f 43/44/35 44/43/34 46/45/36
f 45/46/37 46/45/36 48/47/38
f 47/48/39 48/47/38 50/49/40
f 49/50/41 50/49/40 52/51/42
f 51/52/43 52/51/42 54/53/44
f 53/54/45 54/53/44 56/55/46
f 55/56/47 56/55/46 58/57/48
f 57/58/49 58/57/48 60/59/50
f 59/60/51 60/59/50 62/61/52
f 6/65/56 4/73/61 2/74/62
f 2/74/62 64/75/63 62/76/64
f 62/76/64 60/77/65 58/78/66
f 58/78/66 56/79/67 54/80/68
f 54/80/68 52/81/69 50/82/70
f 50/82/70 48/83/71 46/84/72
f 46/84/72 44/85/73 42/86/74
f 42/86/74 40/87/75 38/63/54
f 38/63/54 36/88/76 34/89/76
f 34/89/76 32/90/76 30/91/76
f 30/91/76 28/92/76 26/93/76
f 26/93/76 24/94/76 22/64/55
f 22/64/55 20/95/76 18/96/76
f 18/96/76 16/97/76 14/98/77
f 14/98/77 12/99/76 10/100/78
f 10/100/78 8/101/79 6/65/56
f 6/65/56 2/74/62 62/76/64
f 62/76/64 58/78/66 54/80/68
f 54/80/68 50/82/70 46/84/72
f 46/84/72 42/86/74 38/63/54
f 38/63/54 34/89/76 30/91/76
f 30/91/76 26/93/76 22/64/55
f 22/64/55 18/96/76 14/98/77
f 14/98/77 10/100/78 6/65/56
f 6/65/56 62/76/64 54/80/68
f 54/80/68 46/84/72 38/63/54
f 38/63/54 30/91/76 22/64/55
f 22/64/55 14/98/77 6/65/56
f 6/65/56 54/80/68 38/63/54
f 61/62/53 62/61/52 64/66/57
f 64/66/57 2/1/1 1/3/3
f 63/70/59 1/102/59 3/103/59
f 3/103/59 5/104/59 7/105/59
f 7/105/59 9/106/59 11/107/59
f 11/107/59 13/108/59 15/109/59
f 15/109/59 17/110/59 19/111/59
f 19/111/59 21/112/59 23/113/59
f 23/113/59 25/114/59 27/115/59
f 27/115/59 29/116/59 31/68/59
f 31/68/59 33/117/59 35/118/59
f 35/118/59 37/119/59 39/120/59
f 39/120/59 41/121/59 43/122/59
f 43/122/59 45/123/59 47/69/59
f 47/69/59 49/124/59 51/125/59
f 51/125/59 53/126/59 55/127/59
f 55/127/59 57/128/59 59/129/59
f 59/129/59 61/130/59 63/70/59
f 63/70/59 3/103/59 7/105/59
f 7/105/59 11/107/59 15/109/59
f 15/109/59 19/111/59 23/113/59
f 23/113/59 27/115/59 31/68/59
f 31/68/59 35/118/59 39/120/59
f 39/120/59 43/122/59 47/69/59
f 47/69/59 51/125/59 55/127/59
f 55/127/59 59/129/59 63/70/59
f 63/70/59 7/105/59 15/109/59
f 15/109/59 23/113/59 31/68/59
f 31/68/59 39/120/59 47/69/59
f 47/69/59 55/127/59 63/70/59
f 63/70/59 15/109/59 31/68/59
